<?xml version="1.0" encoding="UTF-8" standalone="no"?>
<svg width="908px" height="100px" viewBox="0 0 908 100" version="1.1" xmlns="http://www.w3.org/2000/svg" xmlns:xlink="http://www.w3.org/1999/xlink">
    <!-- Generator: Sketch 47.1 (45422) - http://www.bohemiancoding.com/sketch -->
    <title>Group 6</title>
    <desc>Created with Sketch.</desc>
    <defs></defs>
    <g id="Page-1" stroke="none" stroke-width="1" fill="none" fill-rule="evenodd">
        <g id="Shapes-Copy-243" transform="translate(-49.000000, -441.000000)">
            <g id="Group-6" transform="translate(49.000000, 434.000000)">
                <path d="M208.913065,61.6976303 C210.590587,61.6976303 222.712746,48.3684354 222.712746,36.324023 C222.712746,24.2796107 210.601819,10.9504158 208.913065,10.9504158 C207.22431,10.9504158 195.113384,23.1456501 195.113384,36.324023 C195.113384,49.502396 207.235542,61.6976303 208.913065,61.6976303 Z" id="Oval-19" fill="#82A112" transform="translate(208.913065, 36.324023) rotate(-311.000000) translate(-208.913065, -36.324023) "></path>
                <path d="M172.217527,43.0012727 C173.593243,43.0012727 183.534481,32.0701586 183.534481,22.1926793 C183.534481,12.3152001 173.602455,1.38408601 172.217527,1.38408601 C170.8326,1.38408601 160.900573,11.3852525 160.900573,22.1926793 C160.900573,33.0001062 170.841811,43.0012727 172.217527,43.0012727 Z" id="Oval-19" fill="#8BAB19" transform="translate(172.217527, 22.192679) scale(-1, 1) rotate(-311.000000) translate(-172.217527, -22.192679) "></path>
                <path d="M184.480889,32.3773477 C195.146254,45.7106811 195.146254,59.0440144 184.480889,72.3773477" id="Path-6" stroke="#8BAB19" stroke-width="6" stroke-linecap="round" stroke-linejoin="round"></path>
                <path d="M778.913065,61.6976303 C780.590587,61.6976303 792.712746,48.3684354 792.712746,36.324023 C792.712746,24.2796107 780.601819,10.9504158 778.913065,10.9504158 C777.22431,10.9504158 765.113384,23.1456501 765.113384,36.324023 C765.113384,49.502396 777.235542,61.6976303 778.913065,61.6976303 Z" id="Oval-19" fill="#82A112" transform="translate(778.913065, 36.324023) rotate(-311.000000) translate(-778.913065, -36.324023) "></path>
                <path d="M742.217527,43.0012727 C743.593243,43.0012727 753.534481,32.0701586 753.534481,22.1926793 C753.534481,12.3152001 743.602455,1.38408601 742.217527,1.38408601 C740.8326,1.38408601 730.900573,11.3852525 730.900573,22.1926793 C730.900573,33.0001062 740.841811,43.0012727 742.217527,43.0012727 Z" id="Oval-19" fill="#8BAB19" transform="translate(742.217527, 22.192679) scale(-1, 1) rotate(-311.000000) translate(-742.217527, -22.192679) "></path>
                <path d="M754.480889,32.3773477 C765.146254,45.7106811 765.146254,59.0440144 754.480889,72.3773477" id="Path-6" stroke="#8BAB19" stroke-width="6" stroke-linecap="round" stroke-linejoin="round"></path>
                <path d="M92.4789358,64.3773477 L184.478936,64.3773477 L184.478936,64.3773477 C207.674895,64.3773477 226.478936,83.1813882 226.478936,106.377348 L226.478936,106.377348 L50.4789358,106.377348 L50.4789358,106.377348 L50.4789358,106.377348 C50.4789358,83.1813882 69.2829763,64.3773477 92.4789358,64.3773477 Z" id="Rectangle-90" fill="#B88751"></path>
                <circle id="Oval" fill="#A3733F" cx="94.4789358" cy="81.3773477" r="7"></circle>
                <circle id="Oval" fill="#A3733F" cx="110.478936" cy="92.3773477" r="5"></circle>
                <path d="M253.478936,64.3773477 L311.478936,64.3773477 L311.478936,64.3773477 C334.674895,64.3773477 353.478936,83.1813882 353.478936,106.377348 L353.478936,106.377348 L211.478936,106.377348 L211.478936,106.377348 L211.478936,106.377348 C211.478936,83.1813882 230.282976,64.3773477 253.478936,64.3773477 Z" id="Rectangle-90" fill="#B88751"></path>
                <path d="M165.478936,75.3773477 L245.478936,75.3773477 L245.478936,75.3773477 C262.599763,75.3773477 276.478936,89.2565205 276.478936,106.377348 L276.478936,106.377348 L134.478936,106.377348 L134.478936,106.377348 L134.478936,106.377348 C134.478936,89.2565205 148.358109,75.3773477 165.478936,75.3773477 Z" id="Rectangle-90" fill="#A3733F"></path>
                <circle id="Oval" fill="#A3733F" cx="313.478936" cy="83.3773477" r="7"></circle>
                <circle id="Oval" fill="#956836" cx="193.478936" cy="93.3773477" r="7"></circle>
                <path d="M374.68934,89.3773477 L384.825988,89.3773477 L384.825988,89.3773477 C386.952173,89.3773477 388.919574,90.5025948 389.997593,92.335227 L393.257664,97.8773477 L393.257664,97.8773477 C394.837049,100.562303 393.940808,104.019234 391.255853,105.598619 C390.389075,106.108489 389.401742,106.377348 388.396123,106.377348 L371.119206,106.377348 L371.119206,106.377348 C368.004171,106.377348 365.478936,103.852113 365.478936,100.737078 C365.478936,99.7314586 365.747795,98.7441255 366.257664,97.8773477 L369.517735,92.335227 L369.517735,92.335227 C370.595754,90.5025948 372.563155,89.3773477 374.68934,89.3773477 Z" id="Rectangle-91" fill="#B88751"></path>
                <path d="M40.6893404,89.3773477 L50.8259877,89.3773477 L50.8259877,89.3773477 C52.9521734,89.3773477 54.9195741,90.5025948 55.997593,92.335227 L59.2576641,97.8773477 L59.2576641,97.8773477 C60.8370495,100.562303 59.9408081,104.019234 57.2558529,105.598619 C56.3890751,106.108489 55.401742,106.377348 54.3961226,106.377348 L37.1192055,106.377348 L37.1192055,106.377348 C34.0041706,106.377348 31.4789358,103.852113 31.4789358,100.737078 C31.4789358,99.7314586 31.7477948,98.7441255 32.2576641,97.8773477 L35.5177351,92.335227 L35.5177351,92.335227 C36.595754,90.5025948 38.5631547,89.3773477 40.6893404,89.3773477 Z" id="Rectangle-91-Copy" fill="#B88751"></path>
                <path d="M7.17085344,95.3773477 L11.3075008,95.3773477 L11.3075008,95.3773477 C13.4336865,95.3773477 15.4010872,96.5025948 16.4791061,98.335227 L17.9744712,100.877348 L17.9744712,100.877348 C18.9964265,102.614672 18.4165056,104.851509 16.6791816,105.873465 C16.1183255,106.20338 15.4794628,106.377348 14.8287679,106.377348 L3.64958629,106.377348 L3.64958629,106.377348 C1.63397544,106.377348 -3.41257761e-13,104.743372 -3.41504602e-13,102.727761 C-3.4158429e-13,102.077067 0.173967595,101.438204 0.503882996,100.877348 L1.99924815,98.335227 L1.99924815,98.335227 C3.07726708,96.5025948 5.04466777,95.3773477 7.17085344,95.3773477 Z" id="Rectangle-91-Copy" fill="#B88751"></path>
                <path d="M462.913065,67.6976303 C464.590587,67.6976303 476.712746,54.3684354 476.712746,42.324023 C476.712746,30.2796107 464.601819,16.9504158 462.913065,16.9504158 C461.22431,16.9504158 449.113384,29.1456501 449.113384,42.324023 C449.113384,55.502396 461.235542,67.6976303 462.913065,67.6976303 Z" id="Oval-19" fill="#82A112" transform="translate(462.913065, 42.324023) rotate(-311.000000) translate(-462.913065, -42.324023) "></path>
                <path d="M426.217527,49.0012727 C427.593243,49.0012727 437.534481,38.0701586 437.534481,28.1926793 C437.534481,18.3152001 427.602455,7.38408601 426.217527,7.38408601 C424.8326,7.38408601 414.900573,17.3852525 414.900573,28.1926793 C414.900573,39.0001062 424.841811,49.0012727 426.217527,49.0012727 Z" id="Oval-19" fill="#8BAB19" transform="translate(426.217527, 28.192679) scale(-1, 1) rotate(-311.000000) translate(-426.217527, -28.192679) "></path>
                <path d="M438.480889,38.3773477 C449.146254,51.7106811 449.146254,65.0440144 438.480889,78.3773477" id="Path-6" stroke="#8BAB19" stroke-width="6" stroke-linecap="round" stroke-linejoin="round"></path>
                <path d="M293.478936,64.3773477 L385.478936,64.3773477 L385.478936,64.3773477 C408.674895,64.3773477 427.478936,83.1813882 427.478936,106.377348 L427.478936,106.377348 L251.478936,106.377348 L251.478936,106.377348 L251.478936,106.377348 C251.478936,83.1813882 270.282976,64.3773477 293.478936,64.3773477 Z" id="Rectangle-90" fill="#B88751"></path>
                <circle id="Oval" fill="#A3733F" cx="295.478936" cy="81.3773477" r="7"></circle>
                <circle id="Oval" fill="#A3733F" cx="311.478936" cy="92.3773477" r="5"></circle>
                <path d="M474.478936,64.3773477 L532.478936,64.3773477 L532.478936,64.3773477 C555.674895,64.3773477 574.478936,83.1813882 574.478936,106.377348 L574.478936,106.377348 L432.478936,106.377348 L432.478936,106.377348 L432.478936,106.377348 C432.478936,83.1813882 451.282976,64.3773477 474.478936,64.3773477 Z" id="Rectangle-90" fill="#B88751"></path>
                <path d="M366.478936,75.3773477 L446.478936,75.3773477 L446.478936,75.3773477 C463.599763,75.3773477 477.478936,89.2565205 477.478936,106.377348 L477.478936,106.377348 L335.478936,106.377348 L335.478936,106.377348 L335.478936,106.377348 C335.478936,89.2565205 349.358109,75.3773477 366.478936,75.3773477 Z" id="Rectangle-90" fill="#A3733F"></path>
                <circle id="Oval" fill="#A3733F" cx="514.478936" cy="83.3773477" r="7"></circle>
                <circle id="Oval" fill="#956836" cx="394.478936" cy="93.3773477" r="7"></circle>
                <g id="Group-3" transform="translate(710.500000, 85.500000) scale(-1, 1) translate(-710.500000, -85.500000) translate(513.000000, 64.000000)">
                    <path d="M92.4789358,0.377347739 L184.478936,0.377347739 L184.478936,0.377347739 C207.674895,0.377347739 226.478936,19.1813882 226.478936,42.3773477 L226.478936,42.3773477 L50.4789358,42.3773477 L50.4789358,42.3773477 L50.4789358,42.3773477 C50.4789358,19.1813882 69.2829763,0.377347739 92.4789358,0.377347739 Z" id="Rectangle-90" fill="#B88751"></path>
                    <circle id="Oval" fill="#A3733F" cx="94.4789358" cy="17.3773477" r="7"></circle>
                    <circle id="Oval" fill="#A3733F" cx="110.478936" cy="28.3773477" r="5"></circle>
                    <path d="M253.478936,0.377347739 L311.478936,0.377347739 L311.478936,0.377347739 C334.674895,0.377347739 353.478936,19.1813882 353.478936,42.3773477 L353.478936,42.3773477 L211.478936,42.3773477 L211.478936,42.3773477 L211.478936,42.3773477 C211.478936,19.1813882 230.282976,0.377347739 253.478936,0.377347739 Z" id="Rectangle-90" fill="#B88751"></path>
                    <path d="M165.478936,11.3773477 L245.478936,11.3773477 L245.478936,11.3773477 C262.599763,11.3773477 276.478936,25.2565205 276.478936,42.3773477 L276.478936,42.3773477 L134.478936,42.3773477 L134.478936,42.3773477 L134.478936,42.3773477 C134.478936,25.2565205 148.358109,11.3773477 165.478936,11.3773477 Z" id="Rectangle-90" fill="#A3733F"></path>
                    <circle id="Oval" fill="#A3733F" cx="313.478936" cy="19.3773477" r="7"></circle>
                    <circle id="Oval" fill="#956836" cx="193.478936" cy="29.3773477" r="7"></circle>
                    <path d="M374.68934,25.3773477 L384.825988,25.3773477 L384.825988,25.3773477 C386.952173,25.3773477 388.919574,26.5025948 389.997593,28.335227 L393.257664,33.8773477 L393.257664,33.8773477 C394.837049,36.5623029 393.940808,40.0192341 391.255853,41.5986195 C390.389075,42.1084887 389.401742,42.3773477 388.396123,42.3773477 L371.119206,42.3773477 L371.119206,42.3773477 C368.004171,42.3773477 365.478936,39.852113 365.478936,36.737078 C365.478936,35.7314586 365.747795,34.7441255 366.257664,33.8773477 L369.517735,28.335227 L369.517735,28.335227 C370.595754,26.5025948 372.563155,25.3773477 374.68934,25.3773477 Z" id="Rectangle-91" fill="#B88751"></path>
                    <path d="M40.6893404,25.3773477 L50.8259877,25.3773477 L50.8259877,25.3773477 C52.9521734,25.3773477 54.9195741,26.5025948 55.997593,28.335227 L59.2576641,33.8773477 L59.2576641,33.8773477 C60.8370495,36.5623029 59.9408081,40.0192341 57.2558529,41.5986195 C56.3890751,42.1084887 55.401742,42.3773477 54.3961226,42.3773477 L37.1192055,42.3773477 L37.1192055,42.3773477 C34.0041706,42.3773477 31.4789358,39.852113 31.4789358,36.737078 C31.4789358,35.7314586 31.7477948,34.7441255 32.2576641,33.8773477 L35.5177351,28.335227 L35.5177351,28.335227 C36.595754,26.5025948 38.5631547,25.3773477 40.6893404,25.3773477 Z" id="Rectangle-91-Copy" fill="#B88751"></path>
                    <path d="M7.17085344,31.3773477 L11.3075008,31.3773477 L11.3075008,31.3773477 C13.4336865,31.3773477 15.4010872,32.5025948 16.4791061,34.335227 L17.9744712,36.8773477 L17.9744712,36.8773477 C18.9964265,38.6146717 18.4165056,40.8515095 16.6791816,41.8734647 C16.1183255,42.2033801 15.4794628,42.3773477 14.8287679,42.3773477 L3.64958629,42.3773477 L3.64958629,42.3773477 C1.63397544,42.3773477 -3.41257761e-13,40.7433723 -3.41504602e-13,38.7277614 C-3.4158429e-13,38.0770666 0.173967595,37.4382039 0.503882996,36.8773477 L1.99924815,34.335227 L1.99924815,34.335227 C3.07726708,32.5025948 5.04466777,31.3773477 7.17085344,31.3773477 Z" id="Rectangle-91-Copy" fill="#B88751"></path>
                </g>
                <path d="M575.68934,89.3773477 L585.825988,89.3773477 L585.825988,89.3773477 C587.952173,89.3773477 589.919574,90.5025948 590.997593,92.335227 L594.257664,97.8773477 L594.257664,97.8773477 C595.837049,100.562303 594.940808,104.019234 592.255853,105.598619 C591.389075,106.108489 590.401742,106.377348 589.396123,106.377348 L572.119206,106.377348 L572.119206,106.377348 C569.004171,106.377348 566.478936,103.852113 566.478936,100.737078 C566.478936,99.7314586 566.747795,98.7441255 567.257664,97.8773477 L570.517735,92.335227 L570.517735,92.335227 C571.595754,90.5025948 573.563155,89.3773477 575.68934,89.3773477 Z" id="Rectangle-91" fill="#B88751"></path>
                <path d="M241.68934,89.3773477 L251.825988,89.3773477 L251.825988,89.3773477 C253.952173,89.3773477 255.919574,90.5025948 256.997593,92.335227 L260.257664,97.8773477 L260.257664,97.8773477 C261.837049,100.562303 260.940808,104.019234 258.255853,105.598619 C257.389075,106.108489 256.401742,106.377348 255.396123,106.377348 L238.119206,106.377348 L238.119206,106.377348 C235.004171,106.377348 232.478936,103.852113 232.478936,100.737078 C232.478936,99.7314586 232.747795,98.7441255 233.257664,97.8773477 L236.517735,92.335227 L236.517735,92.335227 C237.595754,90.5025948 239.563155,89.3773477 241.68934,89.3773477 Z" id="Rectangle-91-Copy" fill="#B88751"></path>
                <path d="M208.170853,95.3773477 L212.307501,95.3773477 L212.307501,95.3773477 C214.433686,95.3773477 216.401087,96.5025948 217.479106,98.335227 L218.974471,100.877348 L218.974471,100.877348 C219.996427,102.614672 219.416506,104.851509 217.679182,105.873465 C217.118325,106.20338 216.479463,106.377348 215.828768,106.377348 L204.649586,106.377348 L204.649586,106.377348 C202.633975,106.377348 201,104.743372 201,102.727761 C201,102.077067 201.173968,101.438204 201.503883,100.877348 L202.999248,98.335227 L202.999248,98.335227 C204.077267,96.5025948 206.044668,95.3773477 208.170853,95.3773477 Z" id="Rectangle-91-Copy" fill="#B88751"></path>
            </g>
        </g>
    </g>
</svg>