<?xml version="1.0" encoding="UTF-8" standalone="no"?>
<svg width="117px" height="116px" viewBox="0 0 117 116" version="1.1" xmlns="http://www.w3.org/2000/svg" xmlns:xlink="http://www.w3.org/1999/xlink">
    <!-- Generator: Sketch 47.1 (45422) - http://www.bohemiancoding.com/sketch -->
    <title>Group 10</title>
    <desc>Created with Sketch.</desc>
    <defs></defs>
    <g id="Page-1" stroke="none" stroke-width="1" fill="none" fill-rule="evenodd">
        <g id="Shapes-Copy-245" transform="translate(-713.000000, -117.000000)">
            <g id="Group-10" transform="translate(712.000000, 115.000000)">
                <g id="Group-13" transform="translate(58.800000, 55.813953) rotate(-360.000000) translate(-58.800000, -55.813953) translate(3.500000, 0.000000)">
                    <g id="Group-5">
                        <g id="Group-5-Copy">
                            <g id="Group-3">
                                <g id="Group-4">
                                    <g id="Group" transform="translate(60.024495, 16.729679) rotate(7.000000) translate(-60.024495, -16.729679) translate(45.000334, 1.717650)" fill="#E33F3F">
                                        <ellipse id="Oval-3" cx="14.910809" cy="15.15081" rx="14.3692642" ry="14.4747831"></ellipse>
                                    </g>
                                    <path d="M40.5496729,55.4290297 L68.4608964,55.4290297 L68.4608964,55.4290297 C82.6542485,55.4290297 94.1602337,66.9350149 94.1602337,81.128367 L94.1602337,81.128367 L94.1602337,81.128367 C94.1602337,95.321719 82.6542485,106.827704 68.4608964,106.827704 L40.5496729,106.827704 L40.5496729,106.827704 C26.3563208,106.827704 14.8503356,95.321719 14.8503356,81.128367 L14.8503356,81.128367 L14.8503356,81.128367 C14.8503356,66.9350149 26.3563208,55.4290297 40.5496729,55.4290297 Z" id="Rectangle-176" fill="#DED8D8"></path>
                                    <path d="M73.2719668,55.6003034 L110.135359,55.6003034 L110.135359,57.3501803 L110.135359,57.3501803 C110.135359,67.529725 101.883208,75.7818765 91.703663,75.7818765 L91.703663,75.7818765 L91.703663,75.7818765 C81.5241183,75.7818765 73.2719668,67.529725 73.2719668,57.3501803 L73.2719668,55.6003034 Z" id="Rectangle-176" fill="#EBE3E3"></path>
                                    <path d="M0.0773359022,55.6003034 L36.9407284,55.6003034 L36.9407284,57.3501803 L36.9407284,57.3501803 C36.9407284,67.529725 28.6885769,75.7818765 18.5090322,75.7818765 L18.5090322,75.7818765 L18.5090322,75.7818765 C8.3294874,75.7818765 0.0773359022,67.529725 0.0773359022,57.3501803 L0.0773359022,55.6003034 Z" id="Rectangle-176" fill="#EBE3E3" transform="translate(18.509032, 65.691090) scale(-1, 1) translate(-18.509032, -65.691090) "></path>
                                    <rect id="Rectangle-177" fill="#DED8D8" x="41.8167785" y="21.5557338" width="25.8619233" height="46.0249125" rx="12.9309617"></rect>
                                    <rect id="Rectangle-3" fill="#EF4C4C" transform="translate(48.580906, 23.290474) rotate(-315.000000) translate(-48.580906, -23.290474) " x="39.9602644" y="14.6065284" width="17.2412822" height="17.3678915" rx="8.6206411"></rect>
                                    <path d="M51.9633877,44.3681424 L51.9633877,44.3681424 L51.9633877,44.3681424 C53.3916499,44.3681424 54.5494852,45.5259777 54.5494852,46.9542399 L54.5494852,69.9308692 L54.5494852,69.9308692 C54.5494852,74.2526881 51.0459587,77.7562145 46.7241399,77.7562145 C45.9672904,77.7562145 45.2144439,77.6464164 44.4891209,77.4302504 L44.4891209,77.4302504 L44.4891209,77.4302504 C39.8138812,76.0369022 37.1533825,71.1173397 38.5467307,66.4421 C38.69128,65.9570795 38.8772458,65.4853793 39.1025754,65.0322061 L48.2258935,46.6837818 L48.2258935,46.6837818 C48.9312834,45.2651321 50.3790449,44.3681424 51.9633877,44.3681424 Z" id="Rectangle-177" fill="#EF4C4C"></path>
                                    <path d="M51.5505395,43.5578076 L54.5262316,39.4249732 L54.5262316,39.4249732 C55.2502213,38.4194493 56.6522692,38.1912207 57.6577931,38.9152104 C58.2433488,39.3368178 58.5903883,40.0143269 58.5903883,40.7358726 L58.5903883,49.4032033 L58.5903883,49.4032033 C58.5903883,50.6422512 57.5859416,51.6466979 56.3468937,51.6466979 C55.625348,51.6466979 54.9478389,51.2996584 54.5262316,50.7141027 L51.5505395,46.5812683 L51.5505395,46.5812683 C50.9003919,45.6783011 50.9003919,44.4607748 51.5505395,43.5578076 Z" id="Triangle-3" fill="#FFC624" transform="translate(54.826402, 45.069454) rotate(-270.000000) translate(-54.826402, -45.069454) "></path>
                                </g>
                            </g>
                            <rect id="Rectangle-179" fill="#686868" x="64.9254846" y="34.5201613" width="6.89651288" height="10.1310015" rx="3.44825644"></rect>
                            <rect id="Rectangle-179" fill="#686868" x="38.7295114" y="34.5201613" width="6.89651288" height="10.1310015" rx="3.44825644"></rect>
                        </g>
                    </g>
                    <g id="Group-6" transform="translate(13.694631, 100.850040) rotate(19.000000) translate(-13.694631, -100.850040) translate(1.752349, 93.921411)">
                        <rect id="Rectangle-9-Copy" fill="#FFC624" transform="translate(10.104125, 6.954821) scale(-1, 1) rotate(340.000000) translate(-10.104125, -6.954821) " x="0.473252085" y="3.87543014" width="19.261745" height="6.15878107" rx="3.07939054"></rect>
                        <path d="M11.9422819,8.08340016 L23.3074638,0.577385726" id="Line-2" stroke="#FFC624" stroke-width="4.62" stroke-linecap="round" stroke-linejoin="round"></path>
                    </g>
                    <g id="Group-6" transform="translate(94.593960, 100.850040) scale(-1, 1) rotate(19.000000) translate(-94.593960, -100.850040) translate(82.651678, 93.921411)">
                        <rect id="Rectangle-9-Copy" fill="#FFC624" transform="translate(10.104125, 6.954821) scale(-1, 1) rotate(340.000000) translate(-10.104125, -6.954821) " x="0.473252085" y="3.87543014" width="19.261745" height="6.15878107" rx="3.07939054"></rect>
                        <path d="M11.9422819,8.08340016 L23.3074638,0.577385726" id="Line-2" stroke="#FFC624" stroke-width="4.62" stroke-linecap="round" stroke-linejoin="round"></path>
                    </g>
                </g>
                <g id="Group-5" transform="translate(0.000000, 77.441860)">
                    <rect id="Rectangle-70" fill="#D9B460" x="4.9" y="5.58139535" width="107.1" height="31.3953488" rx="15.6976744"></rect>
                    <rect id="Rectangle" fill="#EEC568" transform="translate(108.150000, 10.465116) rotate(-30.000000) translate(-108.150000, -10.465116) " x="98" y="6.97674419" width="20.3" height="6.97674419" rx="3.48837209"></rect>
                    <rect id="Rectangle" fill="#EEC568" transform="translate(12.250000, 31.395349) rotate(-30.000000) translate(-12.250000, -31.395349) " x="2.1" y="27.9069767" width="20.3" height="6.97674419" rx="3.48837209"></rect>
                    <rect id="Rectangle" fill="#EEC568" transform="translate(8.353334, 12.516827) scale(1, -1) rotate(-30.000000) translate(-8.353334, -12.516827) " x="1.08623551" y="9.0284546" width="14.5341978" height="6.97674419" rx="3.48837209"></rect>
                    <rect id="Rectangle" fill="#EEC568" transform="translate(43.353334, 19.493571) scale(1, -1) rotate(-30.000000) translate(-43.353334, -19.493571) " x="36.0862355" y="16.0051988" width="14.5341978" height="6.97674419" rx="3.48837209"></rect>
                    <rect id="Rectangle" fill="#EEC568" transform="translate(85.353334, 8.330780) rotate(-51.000000) translate(-85.353334, -8.330780) " x="78.0862355" y="4.84240809" width="14.5341978" height="6.97674419" rx="3.48837209"></rect>
                    <rect id="Rectangle" fill="#EEC568" transform="translate(89.553334, 34.144734) scale(1, -1) rotate(-51.000000) translate(-89.553334, -34.144734) " x="82.2862355" y="30.6563616" width="14.5341978" height="6.97674419" rx="3.48837209"></rect>
                </g>
            </g>
        </g>
    </g>
</svg>