<?xml version="1.0" encoding="UTF-8" standalone="no"?>
<svg width="124px" height="321px" viewBox="0 0 124 321" version="1.1" xmlns="http://www.w3.org/2000/svg" xmlns:xlink="http://www.w3.org/1999/xlink">
    <!-- Generator: Sketch 47.1 (45422) - http://www.bohemiancoding.com/sketch -->
    <title>Group 14</title>
    <desc>Created with Sketch.</desc>
    <defs>
        <path d="M42.059895,0.3602817 L42.059895,0.3602817 L42.059895,0.3602817 C65.0664333,0.3602817 83.7169175,19.0107659 83.7169175,42.0173042 L83.7169175,100.049991 L83.7169175,100.049991 C83.7169175,101.270911 82.7271664,102.260662 81.5062465,102.260662 L2.61354358,102.260662 L2.61354358,102.260662 C1.39262369,102.260662 0.402872558,101.270911 0.402872558,100.049991 L0.402872558,42.0173042 L0.402872558,42.0173042 C0.402872558,19.0107659 19.0533568,0.3602817 42.059895,0.3602817 Z" id="path-1"></path>
        <path d="M29.692081,0.362697251 L29.692081,0.362697251 L29.692081,0.362697251 C45.9997307,0.362697251 59.2196928,13.5826593 59.2196928,29.890309 L59.2196928,55.0966684 L59.2196928,55.0966684 C59.2196928,62.3611417 53.3306735,68.250161 46.0662002,68.250161 L13.3179619,68.250161 L13.3179619,68.250161 C6.05348854,68.250161 0.16446933,62.3611417 0.16446933,55.0966684 L0.16446933,29.890309 L0.16446933,29.890309 C0.16446933,13.5826593 13.3844314,0.362697251 29.692081,0.362697251 Z" id="path-3"></path>
        <rect id="path-5" x="0" y="-1.13686838e-13" width="71.5155106" height="85.8318168" rx="35.7577553"></rect>
    </defs>
    <g id="Page-1" stroke="none" stroke-width="1" fill="none" fill-rule="evenodd">
        <g id="Shapes-Copy-245" transform="translate(-145.000000, -188.000000)">
            <g id="Group-14" transform="translate(145.000000, 188.000000)">
                <g id="Group" transform="translate(0.000000, 25.176471)">
                    <polygon id="Rectangle-9" fill="#4BA5F8" points="40.0450498 174.436975 56.2591376 174.436975 56.2591376 273.897867 40.0450498 273.897867"></polygon>
                    <path d="M48.13384,252.57484 L54.4469436,252.57484 L54.4469436,252.57484 C56.8905704,252.57484 58.8715214,254.555791 58.8715214,256.999418 L58.8715214,256.999418 C58.8715214,259.443044 56.8905704,261.423995 54.4469436,261.423995 L39.6822996,261.423995 C37.2386728,261.423995 35.2577219,259.443044 35.2577219,256.999418 C35.2577219,256.736861 35.2805911,256.479645 35.3244462,256.229654 C35.1143873,254.965886 35.4608463,253.621697 36.3847104,252.595642 L36.3847104,252.595642 L51.5540434,235.748391 L51.5540434,235.748391 C53.1648011,233.959463 55.9207906,233.815028 57.7097182,235.425785 C59.4986458,237.036543 59.6430811,239.792533 58.0323235,241.58146 L48.13384,252.57484 Z" id="Combined-Shape" fill="#4BA5F8"></path>
                    <path d="M75.9889124,252.57484 L82.3020161,252.57484 L82.3020161,252.57484 C84.7456429,252.57484 86.7265938,254.555791 86.7265938,256.999418 L86.7265938,256.999418 C86.7265938,259.443044 84.7456429,261.423995 82.3020161,261.423995 L67.5373721,261.423995 C65.0937453,261.423995 63.1127943,259.443044 63.1127943,256.999418 C63.1127943,256.736861 63.1356635,256.479645 63.1795186,256.229654 C62.9694598,254.965886 63.3159188,253.621697 64.2397829,252.595642 L64.2397829,252.595642 L79.4091159,235.748391 L79.4091159,235.748391 C81.0198736,233.959463 83.775863,233.815028 85.5647907,235.425785 C87.3537183,237.036543 87.4981536,239.792533 85.8873959,241.58146 L75.9889124,252.57484 Z" id="Combined-Shape" fill="#4BA5F8" transform="translate(75.059402, 247.861144) scale(-1, 1) translate(-75.059402, -247.861144) "></path>
                    <polygon id="Rectangle-9" fill="#4BA5F8" points="66.1030208 174.436975 82.3171086 174.436975 82.3171086 273.897867 66.1030208 273.897867"></polygon>
                    <rect id="Rectangle-2" fill="#4BA5F8" x="42.2318841" y="166.344538" width="37.7391304" height="23.3781513"></rect>
                    <g id="Rectangle-19" transform="translate(20.288373, 0.000000)">
                        <mask id="mask-2" fill="white">
                            <use xlink:href="#path-1"></use>
                        </mask>
                        <use id="Mask" fill="#86550A" xlink:href="#path-1"></use>
                    </g>
                    <rect id="Rectangle-3" fill="#FAA78A" transform="translate(31.857913, 160.929144) rotate(-90.000000) translate(-31.857913, -160.929144) " x="22.8882092" y="156.944232" width="17.9394072" height="7.96982429" rx="3.98491215"></rect>
                    <rect id="Rectangle-97" fill="#FFC4AF" transform="translate(27.002915, 133.567023) scale(-1, 1) rotate(-315.000000) translate(-27.002915, -133.567023) " x="-3.13195217" y="126.073163" width="60.2697346" height="14.9877187" rx="7.49385936"></rect>
                    <rect id="Rectangle-3" fill="#FAA78A" transform="translate(91.243537, 160.929144) scale(-1, 1) rotate(-90.000000) translate(-91.243537, -160.929144) " x="82.2738329" y="156.944232" width="17.9394072" height="7.96982429" rx="3.98491215"></rect>
                    <path d="M21.6412911,117.292034 L57.7480693,117.292034 L57.7480693,132.091502 L57.7480693,132.091502 C57.7480693,133.444764 56.6510338,134.541799 55.297772,134.541799 L14.2903992,134.541799 L14.2903992,124.642925 L14.2903992,124.642925 C14.2903992,120.58314 17.5815056,117.292034 21.6412911,117.292034 Z" id="Rectangle-97" fill="#D74B36" transform="translate(36.019234, 125.916916) scale(-1, 1) rotate(-315.000000) translate(-36.019234, -125.916916) "></path>
                    <rect id="Rectangle-97" fill="#FFC4AF" transform="translate(24.119927, 162.439481) scale(-1, -1) rotate(-315.000000) translate(-24.119927, -162.439481) " x="-1.93777929" y="154.945622" width="52.1154122" height="14.9877187" rx="7.49385936"></rect>
                    <rect id="Rectangle-97" fill="#FFC4AF" transform="translate(96.098534, 133.567023) rotate(-315.000000) translate(-96.098534, -133.567023) " x="65.9636668" y="126.073163" width="60.2697346" height="14.9877187" rx="7.49385936"></rect>
                    <path d="M72.7042719,117.292034 L108.81105,117.292034 L108.81105,132.091502 L108.81105,132.091502 C108.81105,133.444764 107.714015,134.541799 106.360753,134.541799 L65.35338,134.541799 L65.35338,124.642925 L65.35338,124.642925 C65.35338,120.58314 68.6444864,117.292034 72.7042719,117.292034 Z" id="Rectangle-97" fill="#D74B36" transform="translate(87.082215, 125.916916) rotate(-315.000000) translate(-87.082215, -125.916916) "></path>
                    <ellipse id="Oval" fill="#FAA78A" cx="98.1276827" cy="46.0397627" rx="11.7413525" ry="11.6561726"></ellipse>
                    <g id="Rectangle" transform="translate(31.887725, 100.134704)">
                        <mask id="mask-4" fill="white">
                            <use xlink:href="#path-3"></use>
                        </mask>
                        <use id="Mask" fill="#FF6750" xlink:href="#path-3"></use>
                        <rect id="Rectangle-16" fill="#4BA5F8" mask="url(#mask-4)" x="4.05430417" y="35.6384052" width="51.2173913" height="35.3952082" rx="2.7"></rect>
                        <path d="M37.9116955,1.47033801 L50.8330779,1.47033801 L50.8330779,46.8753181 L50.8330779,46.8753181 C50.8330779,50.4434594 47.9405279,53.3360093 44.3723867,53.3360093 L44.3723867,53.3360093 L44.3723867,53.3360093 C40.8042455,53.3360093 37.9116955,50.4434594 37.9116955,46.8753181 L37.9116955,1.47033801 Z" id="Rectangle-12-Copy" fill="#409AEC" mask="url(#mask-4)"></path>
                        <path d="M9.15807229,1.47033801 L22.0794547,1.47033801 L22.0794547,46.8753181 L22.0794547,46.8753181 C22.0794547,50.4434594 19.1869047,53.3360093 15.6187635,53.3360093 L15.6187635,53.3360093 L15.6187635,53.3360093 C12.0506223,53.3360093 9.15807229,50.4434594 9.15807229,46.8753181 L9.15807229,1.47033801 Z" id="Rectangle-12-Copy" fill="#409AEC" mask="url(#mask-4)"></path>
                    </g>
                    <ellipse id="Oval" fill="#FAA78A" cx="26.3357929" cy="46.0397627" rx="11.7413525" ry="11.6561726"></ellipse>
                    <path d="M62,89.0168067 L62,89.0168067 L62,89.0168067 C71.4288614,89.0168067 79.0724638,96.6604091 79.0724638,106.08927 L79.0724638,124.441471 L79.0724638,124.441471 C79.0724638,126.429696 77.4606889,128.041471 75.4724638,128.041471 C75.0757659,128.041471 74.6817958,127.975903 74.3064812,127.847419 L62,123.634454 L49.6935188,127.847419 L49.6935188,127.847419 C47.8124654,128.491373 45.7655422,127.488506 45.1215878,125.607453 C44.9931037,125.232138 44.9275362,124.838168 44.9275362,124.441471 L44.9275362,106.08927 L44.9275362,106.08927 C44.9275362,96.6604091 52.5711386,89.0168067 62,89.0168067 Z" id="Rectangle-77" fill="#D74B36"></path>
                    <path d="M63.4438475,111.59499 L69.0480072,120.311106 L54.8115942,120.311106 L60.415754,111.59499 L60.415754,111.59499 C60.9533918,110.758805 62.0670953,110.516785 62.9032802,111.054423 C63.1200962,111.193828 63.3044424,111.378174 63.4438475,111.59499 Z" id="Triangle-3" fill="#FFFFFF" transform="translate(61.929801, 115.538168) scale(1, -1) translate(-61.929801, -115.538168) "></path>
                    <rect id="Rectangle" fill="#FAA78A" x="53.382837" y="57.7552758" width="17.0783309" height="56.8566909" rx="8.53916544"></rect>
                    <g id="Oval-2" transform="translate(26.516869, 1.771738)">
                        <mask id="mask-6" fill="white">
                            <use xlink:href="#path-5"></use>
                        </mask>
                        <use id="Mask" fill="#FFC4AF" xlink:href="#path-5"></use>
                        <rect id="Rectangle-4" fill="#C98B75" mask="url(#mask-6)" x="18.5078787" y="25.7792153" width="7.47176976" height="14.8351288" rx="3.73588488"></rect>
                        <rect id="Rectangle-5" fill="#FAA78A" mask="url(#mask-6)" x="29.1818355" y="24.7195632" width="11.7413525" height="20.1333891" rx="2.12334509"></rect>
                        <ellipse fill="#86550A" mask="url(#mask-6)" cx="81.579527" cy="-7.41756441" rx="41.6284315" ry="41.3264303"></ellipse>
                        <ellipse fill="#86550A" mask="url(#mask-6)" cx="6.24235866" cy="-8.29919492" rx="41.6284315" ry="41.3264303"></ellipse>
                        <g id="Group-6" mask="url(#mask-6)">
                            <g transform="translate(17.839776, 5.441692)" id="Group-13">
                                <g transform="translate(-0.000000, -0.000000)">
                                    <rect id="Rectangle-18" fill="#B17315" x="6.67417496" y="0" width="5.93259997" height="8.09913047" rx="2.96629998"></rect>
                                    <rect id="Rectangle-18" fill="#B17315" x="0" y="1.47256918" width="5.93259997" height="5.89027671" rx="2.94513835"></rect>
                                </g>
                            </g>
                        </g>
                    </g>
                    <path d="M32.9041032,161.235676 L40.9487751,161.235676 L40.9487751,161.235676 C43.8805028,161.235676 46.2571378,163.612311 46.2571378,166.544039 L46.2571378,177.997596 L46.2571378,177.997596 C46.2571378,180.929324 43.8805028,183.305959 40.9487751,183.305959 L39.2121753,183.305959 L39.2121753,183.305959 C35.32135,183.305959 32.1672129,180.151822 32.1672129,176.260996 L32.1672129,161.972566 L32.1672129,161.972566 C32.1672129,161.565593 32.4971299,161.235676 32.9041032,161.235676 Z" id="Rectangle-6" fill="#FFC4AF"></path>
                    <rect id="Rectangle-3" fill="#FFC4AF" x="34.6416139" y="161.235676" width="17.9394072" height="7.96982429" rx="3.98491215"></rect>
                    <rect id="Rectangle-97" fill="#FFC4AF" transform="translate(98.981522, 162.439481) scale(1, -1) rotate(-315.000000) translate(-98.981522, -162.439481) " x="72.9238164" y="154.945622" width="52.1154122" height="14.9877187" rx="7.49385936"></rect>
                    <path d="M77.5812018,161.235676 L85.6258737,161.235676 L85.6258737,161.235676 C88.5576015,161.235676 90.9342364,163.612311 90.9342364,166.544039 L90.9342364,177.997596 L90.9342364,177.997596 C90.9342364,180.929324 88.5576015,183.305959 85.6258737,183.305959 L83.8892739,183.305959 L83.8892739,183.305959 C79.9984486,183.305959 76.8443115,180.151822 76.8443115,176.260996 L76.8443115,161.972566 L76.8443115,161.972566 C76.8443115,161.565593 77.1742285,161.235676 77.5812018,161.235676 Z" id="Rectangle-6" fill="#FFC4AF" transform="translate(83.889274, 172.270817) scale(-1, 1) translate(-83.889274, -172.270817) "></path>
                    <rect id="Rectangle-3" fill="#FFC4AF" transform="translate(79.490132, 165.220588) scale(-1, 1) translate(-79.490132, -165.220588) " x="70.5204282" y="161.235676" width="17.9394072" height="7.96982429" rx="3.98491215"></rect>
                    <path d="M71.4123391,167.979374 L81.381922,167.979374 L81.381922,167.979374 C83.5827282,167.979374 85.3668342,169.76348 85.3668342,171.964286 L85.3668342,171.964286 L85.3668342,171.964286 C85.3668342,174.165092 83.5827282,175.949198 81.381922,175.949198 L71.4123391,175.949198 L71.4123391,175.949198 C69.2115329,175.949198 67.427427,174.165092 67.427427,171.964286 L67.427427,171.964286 L67.427427,171.964286 C67.427427,169.76348 69.2115329,167.979374 71.4123391,167.979374 Z" id="Rectangle-3" fill="#FFC4AF" transform="translate(76.397131, 171.964286) scale(-1, 1) translate(-76.397131, -171.964286) "></path>
                    <rect id="Rectangle-3" fill="#FFC4AF" transform="translate(80.108732, 179.321047) scale(-1, 1) translate(-80.108732, -179.321047) " x="72.9948292" y="175.336134" width="14.2278057" height="7.96982429" rx="3.98491215"></rect>
                    <path d="M41.7195273,167.979374 L51.6891101,167.979374 L51.6891101,167.979374 C53.8899163,167.979374 55.6740223,169.76348 55.6740223,171.964286 L55.6740223,171.964286 L55.6740223,171.964286 C55.6740223,174.165092 53.8899163,175.949198 51.6891101,175.949198 L41.7195273,175.949198 L41.7195273,175.949198 C39.518721,175.949198 37.7346151,174.165092 37.7346151,171.964286 L37.7346151,171.964286 L37.7346151,171.964286 C37.7346151,169.76348 39.518721,167.979374 41.7195273,167.979374 Z" id="Rectangle-3" fill="#FFC4AF"></path>
                    <rect id="Rectangle-3" fill="#FFC4AF" x="35.8788144" y="175.336134" width="14.2278057" height="7.96982429" rx="3.98491215"></rect>
                    <rect id="Rectangle-4" fill="#C98B75" x="70.6422439" y="27.5509535" width="7.47176976" height="14.8351288" rx="3.73588488"></rect>
                    <g id="Group-3" transform="translate(38.125898, 42.578242) scale(-1, 1) translate(-38.125898, -42.578242) translate(34.723597, 38.286799)" fill="#DFA18B" opacity="0.543534873">
                        <ellipse id="Oval-21" cx="4.82023747" cy="1.84071147" rx="1.85393749" ry="1.84071147"></ellipse>
                        <ellipse id="Oval-21" cx="1.85393749" cy="6.258419" rx="1.85393749" ry="1.84071147"></ellipse>
                    </g>
                    <g id="Group-3" transform="translate(80.831675, 38.286799)" fill="#DFA18B" opacity="0.543534873">
                        <ellipse id="Oval-21" cx="4.82023747" cy="1.84071147" rx="1.85393749" ry="1.84071147"></ellipse>
                        <ellipse id="Oval-21" cx="1.85393749" cy="6.258419" rx="1.85393749" ry="1.84071147"></ellipse>
                    </g>
                </g>
                <path d="M42.4720775,1.23897158e-15 L79.730821,1.23897158e-15 L79.730821,7.10542736e-15 C85.1414264,1.09170982e-14 89.8462917,3.7098871 91.108172,8.971285 L99.7391304,44.9579832 L22.4637681,44.9579832 L31.0947266,8.971285 L31.0947266,8.971285 C32.3566069,3.7098871 37.0614722,9.87569627e-15 42.4720775,8.8817842e-15 Z" id="Rectangle-17" fill="#F6C71E"></path>
                <rect id="Rectangle-20" fill="#FF6750" x="18.8695652" y="31.4705882" width="83.5652174" height="8.99159664" rx="1.8"></rect>
                <rect id="Rectangle-76" fill="#FFD749" x="0.898550725" y="40.4621849" width="123.101449" height="8.99159664" rx="4.49579832"></rect>
                <rect id="Rectangle-21" fill="#FFD749" x="24.2608696" y="13.487395" width="20.6666667" height="6.29411765" rx="3.14705882"></rect>
                <rect id="Rectangle-21-Copy" fill="#FFD749" x="75.4782609" y="19.7815126" width="20.6666667" height="6.29411765" rx="3.14705882"></rect>
                <rect id="Rectangle-21-Copy-2" fill="#FFD749" x="62" y="6.29411765" width="14.3768116" height="6.29411765" rx="3.14705882"></rect>
                <ellipse id="Oval-4" fill="#FFE04F" cx="47.6231884" cy="169.941176" rx="4.49275362" ry="4.49579832"></ellipse>
                <ellipse id="Oval-4" fill="#FFE04F" cx="76.3768116" cy="170.840336" rx="4.49275362" ry="4.49579832"></ellipse>
                <g id="Group-10" transform="translate(17.072464, 281.436975)">
                    <g id="Group-12">
                        <g id="Group-9">
                            <g id="Group-8">
                                <g id="Group-5">
                                    <rect id="Rectangle-14" fill="#A0642E" x="48.1468043" y="4.58931092" width="21.5393598" height="29.751395" rx="3.24"></rect>
                                    <rect id="Rectangle-28" fill="#865426" x="55.1154207" y="0.158252101" width="10.1361693" height="24.0543193" rx="5.06808466"></rect>
                                    <rect id="Rectangle-14" fill="#A0642E" x="18.3718069" y="4.58931092" width="21.5393598" height="29.1183866" rx="3.24"></rect>
                                    <rect id="Rectangle-28" fill="#865426" x="22.1728704" y="0.158252101" width="10.1361693" height="24.0543193" rx="5.06808466"></rect>
                                    <path d="M52.8981337,9.96988235 L68.7358982,20.7310252" id="Line" stroke="#72461C" stroke-width="3.888" stroke-linecap="round" stroke-linejoin="round"></path>
                                    <path d="M52.8981337,9.96988235 L68.7358982,20.7310252" id="Line" stroke="#72461C" stroke-width="3.888" stroke-linecap="round" stroke-linejoin="round" transform="translate(60.817016, 15.350454) scale(-1, 1) translate(-60.817016, -15.350454) "></path>
                                    <path d="M19.3220728,9.96988235 L35.1598373,20.7310252" id="Line" stroke="#72461C" stroke-width="3.888" stroke-linecap="round" stroke-linejoin="round"></path>
                                    <path d="M19.3220728,9.96988235 L35.1598373,20.7310252" id="Line" stroke="#72461C" stroke-width="3.888" stroke-linecap="round" stroke-linejoin="round" transform="translate(27.240955, 15.350454) scale(-1, 1) translate(-27.240955, -15.350454) "></path>
                                    <path d="M64.3412571,17.0037521 L68.7797317,17.0037521 L68.7797317,17.0037521 C78.3320183,17.0037521 86.0756766,24.7474104 86.0756766,34.2996971 L86.0756766,34.2996971 L47.0453122,34.2996971 L47.0453122,34.2996971 L47.0453122,34.2996971 C47.0453122,24.7474104 54.7889705,17.0037521 64.3412571,17.0037521 Z" id="Rectangle-10" fill="#AD713A"></path>
                                    <path d="M19.3164506,17.0037521 L23.7549252,17.0037521 L23.7549252,17.0037521 C33.3072118,17.0037521 41.0508702,24.7474104 41.0508702,34.2996971 L41.0508702,34.2996971 L2.02050567,34.2996971 L2.02050567,34.2996971 L2.02050567,34.2996971 C2.02050567,24.7474104 9.76416399,17.0037521 19.3164506,17.0037521 Z" id="Rectangle-10" fill="#AD713A"></path>
                                    <path d="M2.51541936,34.2103344 L40.3882262,34.2103344 L40.3882262,34.2103344 C41.6478304,34.2103344 42.6689413,35.2314454 42.6689413,36.4910496 L42.6689413,36.4910496 L42.6689413,36.4910496 C42.6689413,37.7506538 41.6478304,38.7717647 40.3882262,38.7717647 L2.51541936,38.7717647 L2.51541936,38.7717647 C1.25581517,38.7717647 0.234704222,37.7506538 0.234704222,36.4910496 L0.234704222,36.4910496 L0.234704222,36.4910496 C0.234704222,35.2314454 1.25581517,34.2103344 2.51541936,34.2103344 Z" id="Rectangle-15" fill="#865426"></path>
                                    <path d="M47.6697448,34.2103344 L85.5425517,34.2103344 L85.5425517,34.2103344 C86.8021558,34.2103344 87.8232668,35.2314454 87.8232668,36.4910496 L87.8232668,36.4910496 L87.8232668,36.4910496 C87.8232668,37.7506538 86.8021558,38.7717647 85.5425517,38.7717647 L47.6697448,38.7717647 L47.6697448,38.7717647 C46.4101406,38.7717647 45.3890297,37.7506538 45.3890297,36.4910496 L45.3890297,36.4910496 L45.3890297,36.4910496 C45.3890297,35.2314454 46.4101406,34.2103344 47.6697448,34.2103344 Z" id="Rectangle-15" fill="#865426"></path>
                                </g>
                            </g>
                        </g>
                    </g>
                </g>
                <rect id="Rectangle-79" fill="#71BBFF" x="70.9855072" y="236.478992" width="12.5797101" height="17.0840336" rx="1.8"></rect>
                <rect id="Rectangle-12" fill="#95CCFF" transform="translate(71.884058, 237.827731) rotate(-45.000000) translate(-71.884058, -237.827731) " x="70.0869565" y="234.680672" width="3.5942029" height="6.29411765" rx="1.79710145"></rect>
                <rect id="Rectangle-12" fill="#95CCFF" transform="translate(71.884058, 253.113445) scale(1, -1) rotate(-45.000000) translate(-71.884058, -253.113445) " x="70.0869565" y="249.966387" width="3.5942029" height="6.29411765" rx="1.79710145"></rect>
            </g>
        </g>
    </g>
</svg>