<?xml version="1.0" encoding="UTF-8" standalone="no"?>
<svg width="42px" height="61px" viewBox="0 0 42 61" version="1.1" xmlns="http://www.w3.org/2000/svg" xmlns:xlink="http://www.w3.org/1999/xlink">
    <!-- Generator: Sketch 47.1 (45422) - http://www.bohemiancoding.com/sketch -->
    <title>Group 9</title>
    <desc>Created with Sketch.</desc>
    <defs></defs>
    <g id="Page-1" stroke="none" stroke-width="1" fill="none" fill-rule="evenodd">
        <g id="Shapes-Copy-245" transform="translate(-110.000000, -638.000000)">
            <g id="Group-11" transform="translate(88.000000, 619.000000)">
                <g id="Group-9" transform="translate(24.000000, 19.000000)">
                    <path d="M19,0 L19,0 L19,0 C25.3984209,-1.17537085e-15 30.5853659,5.18694497 30.5853659,11.5853659 L30.5853659,25.8749516 L30.5853659,25.8749516 C30.5853659,32.2733725 25.3984209,37.4603175 19,37.4603175 L19,37.4603175 L19,37.4603175 C12.6015791,37.4603175 7.41463415,32.2733725 7.41463415,25.8749516 L7.41463415,11.5853659 L7.41463415,11.5853659 C7.41463415,5.18694497 12.6015791,1.17537085e-15 19,0 Z" id="Rectangle-115" fill="#FFFFFF"></path>
                    <path d="M37.5365854,20.4489934 L37.5365854,26.8446574 C37.5365854,37.1890384 29.2374734,45.5748161 19,45.5748161 C8.76252659,45.5748161 0.463414634,37.1890384 0.463414634,26.8446574 L0.463414634,20.4489934" id="Rectangle-2" stroke="#FFFFFF" stroke-width="4.67775" stroke-linecap="round" stroke-linejoin="round"></path>
                    <path d="M19,46.3571429 L19,56.6899125" id="Line-3" stroke="#FFFFFF" stroke-width="4.67775" stroke-linecap="round" stroke-linejoin="round"></path>
                    <path d="M25.9512195,58.0634921 L12.0179204,58.0634921" id="Line-3" stroke="#FFFFFF" stroke-width="4.67775" stroke-linecap="round" stroke-linejoin="round"></path>
                </g>
            </g>
        </g>
    </g>
</svg>