<?xml version="1.0" encoding="UTF-8" standalone="no"?>
<svg width="466px" height="367px" viewBox="0 0 466 367" version="1.1" xmlns="http://www.w3.org/2000/svg" xmlns:xlink="http://www.w3.org/1999/xlink">
    <!-- Generator: Sketch 47.1 (45422) - http://www.bohemiancoding.com/sketch -->
    <title>Group 7</title>
    <desc>Created with Sketch.</desc>
    <defs></defs>
    <g id="Page-1" stroke="none" stroke-width="1" fill="none" fill-rule="evenodd">
        <g id="Shapes-Copy-245" transform="translate(-212.000000, -143.000000)">
            <g id="Group-7" transform="translate(212.000000, 143.000000)">
                <rect id="Rectangle-120" fill="#BF3D3D" x="257" y="220" width="98" height="40" rx="7"></rect>
                <rect id="Rectangle-120" fill="#BF3D3D" x="195" y="220" width="36" height="40" rx="18"></rect>
                <rect id="Rectangle-120" fill="#EE4B4B" x="116" y="187" width="313" height="51" rx="22"></rect>
                <rect id="Rectangle-120" fill="#EE4B4B" x="392" y="221" width="36" height="37" rx="18"></rect>
                <rect id="Rectangle" fill="#BF3D3D" transform="translate(161.500000, 171.000000) rotate(-120.000000) translate(-161.500000, -171.000000) " x="126.5" y="164.5" width="70" height="13" rx="6.5"></rect>
                <circle id="Oval-28" fill="#676767" cx="105.5" cy="261.5" r="98.5"></circle>
                <circle id="Oval-28" fill="#676767" cx="410" cy="304" r="56"></circle>
                <circle id="Oval-28" stroke="#DCDCDC" stroke-width="10" fill="#EE4B4B" cx="106.5" cy="262.5" r="59.5"></circle>
                <circle id="Oval-28" stroke="#DCDCDC" stroke-width="10" fill="#EE4B4B" cx="411" cy="305" r="33"></circle>
                <rect id="Rectangle-118" fill="#838383" transform="translate(106.000000, 172.000000) rotate(-270.000000) translate(-106.000000, -172.000000) " x="92" y="162" width="28" height="20" rx="10"></rect>
                <rect id="Rectangle-118" fill="#838383" transform="translate(106.000000, 353.000000) rotate(-270.000000) translate(-106.000000, -353.000000) " x="92" y="343" width="28" height="20" rx="10"></rect>
                <g id="Group-3" transform="translate(105.000000, 262.500000) rotate(-90.000000) translate(-105.000000, -262.500000) translate(95.000000, 158.000000)" fill="#838383">
                    <rect id="Rectangle-118" transform="translate(10.000000, 14.000000) rotate(-270.000000) translate(-10.000000, -14.000000) " x="-4" y="4" width="28" height="20" rx="10"></rect>
                    <rect id="Rectangle-118" transform="translate(10.000000, 195.000000) rotate(-270.000000) translate(-10.000000, -195.000000) " x="-4" y="185" width="28" height="20" rx="10"></rect>
                </g>
                <g id="Group-3" transform="translate(105.000000, 262.500000) rotate(-45.000000) translate(-105.000000, -262.500000) translate(95.000000, 158.000000)" fill="#838383">
                    <rect id="Rectangle-118" transform="translate(10.000000, 14.000000) rotate(-270.000000) translate(-10.000000, -14.000000) " x="-4" y="4" width="28" height="20" rx="10"></rect>
                    <rect id="Rectangle-118" transform="translate(10.000000, 195.000000) rotate(-270.000000) translate(-10.000000, -195.000000) " x="-4" y="185" width="28" height="20" rx="10"></rect>
                </g>
                <g id="Group-3" transform="translate(105.000000, 262.500000) scale(-1, 1) rotate(-45.000000) translate(-105.000000, -262.500000) translate(95.000000, 158.000000)" fill="#838383">
                    <rect id="Rectangle-118" transform="translate(10.000000, 14.000000) rotate(-270.000000) translate(-10.000000, -14.000000) " x="-4" y="4" width="28" height="20" rx="10"></rect>
                    <rect id="Rectangle-118" transform="translate(10.000000, 195.000000) rotate(-270.000000) translate(-10.000000, -195.000000) " x="-4" y="185" width="28" height="20" rx="10"></rect>
                </g>
                <circle id="Oval" fill="#BF3D3D" cx="107" cy="229" r="5"></circle>
                <circle id="Oval" fill="#BF3D3D" cx="107" cy="263" r="9"></circle>
                <circle id="Oval" fill="#BF3D3D" cx="411" cy="305" r="9"></circle>
                <circle id="Oval" fill="#BF3D3D" cx="107" cy="296" r="5"></circle>
                <rect id="Rectangle-121" fill="#C2B7B7" x="387" y="0" width="20" height="146" rx="5"></rect>
                <rect id="Rectangle-121" fill="#C9C1C1" x="381" y="59" width="32" height="65" rx="5"></rect>
                <g id="Group-6" transform="translate(107.000000, 262.500000) rotate(-90.000000) translate(-107.000000, -262.500000) translate(102.000000, 224.000000)" fill="#BF3D3D">
                    <circle id="Oval" cx="5" cy="5" r="5"></circle>
                    <circle id="Oval" cx="5" cy="72" r="5"></circle>
                </g>
                <rect id="Rectangle-119" fill="#676767" x="110" y="122" width="70" height="23" rx="11.5"></rect>
                <rect id="Rectangle" fill="#BF3D3D" transform="translate(261.000000, 135.000000) rotate(8.000000) translate(-261.000000, -135.000000) " x="216" y="130" width="90" height="10"></rect>
                <rect id="Rectangle" fill="#676767" transform="translate(217.500000, 130.000000) rotate(-90.000000) translate(-217.500000, -130.000000) " x="182.5" y="123.5" width="70" height="13" rx="6.5"></rect>
                <rect id="Rectangle-120" fill="#EE4B4B" x="254" y="136" width="175" height="102" rx="22"></rect>
                <path d="M254,184 L389,184 L389,184 C392.865993,184 396,187.134007 396,191 L396,211 L396,211 C396,214.865993 392.865993,218 389,218 L254,218 L254,184 Z" id="Rectangle-120" fill="#BF3D3D"></path>
                <path d="M270.5,154.5 L411.556726,154.5" id="Line-4" stroke="#FFFFFF" stroke-width="6" stroke-linecap="round" stroke-linejoin="round"></path>
                <rect id="Rectangle-8" fill="#BF3D3D" x="410" y="164" width="27" height="12" rx="6"></rect>
                <rect id="Rectangle-8" fill="#BF3D3D" x="410" y="184" width="27" height="12" rx="6"></rect>
                <rect id="Rectangle-8" fill="#BF3D3D" x="410" y="204" width="27" height="12" rx="6"></rect>
            </g>
        </g>
    </g>
</svg>